HIERARCHY
ROOT hip
{
  OFFSET 0 90.174 2.4664
  CHANNELS 6 Xposition Yposition Zposition Zrotation Xrotation Yrotation
  JOINT abdomen
  {
    OFFSET 0 -1.186 -1.5018
    CHANNELS 6 Xposition Yposition Zposition Zrotation Xrotation Yrotation
    JOINT abdomen2
    {
      OFFSET 0 9.964 0.2134
      CHANNELS 6 Xposition Yposition Zposition Zrotation Xrotation Yrotation
      JOINT chest
      {
        OFFSET 0 13.134 -3.2573
        CHANNELS 6 Xposition Yposition Zposition Zrotation Xrotation Yrotation
        JOINT neck
        {
          OFFSET 0 20.686 -1.6905
          CHANNELS 6 Xposition Yposition Zposition Zrotation Xrotation Yrotation
          JOINT head
          {
            OFFSET 0 7.238 -0.1237
            CHANNELS 6 Xposition Yposition Zposition Zrotation Xrotation Yrotation
            End Site
            {
              OFFSET 0 0 0
            }
          }
        }
        JOINT lCollar
        {
          OFFSET 1.7069 20.075 5.0056
          CHANNELS 6 Xposition Yposition Zposition Zrotation Xrotation Yrotation
          JOINT lShldr
          {
            OFFSET 13.6458 -0.047 -4.849
            CHANNELS 6 Xposition Yposition Zposition Zrotation Xrotation Yrotation
            JOINT lForeArm
            {
              OFFSET 28.3255 -0.9759 2.2888
              CHANNELS 6 Xposition Yposition Zposition Zrotation Xrotation Yrotation
              JOINT lHand
              {
                OFFSET 22.1583 -0.53 10.8316
                CHANNELS 6 Xposition Yposition Zposition Zrotation Xrotation Yrotation
                JOINT lThumb1
                {
                  OFFSET 0.786 0.112 2.5817
                  CHANNELS 6 Xposition Yposition Zposition Zrotation Xrotation Yrotation
                  JOINT lThumb2
                  {
                    OFFSET 0.3601 -0.878 4.2331
                    CHANNELS 6 Xposition Yposition Zposition Zrotation Xrotation Yrotation
                    JOINT lThumb2_End
                    {
                      OFFSET 1.8127 -1.216 2.2227
                      CHANNELS 6 Xposition Yposition Zposition Zrotation Xrotation Yrotation
                      End Site
                      {
                        OFFSET 0.0181 -0.0122 0.0222
                      }
                    }
                  }
                }
                JOINT lCarpal1
                {
                  OFFSET 0.9571 1.114 1.7695
                  CHANNELS 6 Xposition Yposition Zposition Zrotation Xrotation Yrotation
                  JOINT lIndex1
                  {
                    OFFSET 4.1246 0.487 4.1451
                    CHANNELS 6 Xposition Yposition Zposition Zrotation Xrotation Yrotation
                    JOINT lIndex2
                    {
                      OFFSET 3.4052 -1.454 2.7682
                      CHANNELS 6 Xposition Yposition Zposition Zrotation Xrotation Yrotation
                      JOINT lIndex2_End
                      {
                        OFFSET 1.4531 -1.795 1.2713
                        CHANNELS 6 Xposition Yposition Zposition Zrotation Xrotation Yrotation
                        End Site
                        {
                          OFFSET 0.0145 -0.0179 0.0127
                        }
                      }
                    }
                  }
                  JOINT lMid1
                  {
                    OFFSET 5.6954 0.21 2.1184
                    CHANNELS 6 Xposition Yposition Zposition Zrotation Xrotation Yrotation
                    JOINT lMid2
                    {
                      OFFSET 3.9766 -1.54 2.3863
                      CHANNELS 6 Xposition Yposition Zposition Zrotation Xrotation Yrotation
                      JOINT lMid2_End
                      {
                        OFFSET 1.4042 -1.926 1.125
                        CHANNELS 6 Xposition Yposition Zposition Zrotation Xrotation Yrotation
                        End Site
                        {
                          OFFSET 0.014 -0.0193 0.0113
                        }
                      }
                    }
                  }
                }
                JOINT lCarpal2
                {
                  OFFSET 2.0956 0.66 -0.3894
                  CHANNELS 6 Xposition Yposition Zposition Zrotation Xrotation Yrotation
                  JOINT lRing1
                  {
                    OFFSET 5.0395 -0.09 2.4971
                    CHANNELS 6 Xposition Yposition Zposition Zrotation Xrotation Yrotation
                    JOINT lRing2
                    {
                      OFFSET 3.7921 -1.552 1.4806
                      CHANNELS 6 Xposition Yposition Zposition Zrotation Xrotation Yrotation
                      JOINT lRing2_End
                      {
                        OFFSET 1.4655 -1.808 0.9609
                        CHANNELS 6 Xposition Yposition Zposition Zrotation Xrotation Yrotation
                        End Site
                        {
                          OFFSET 0.0147 -0.0181 0.0096
                        }
                      }
                    }
                  }
                  JOINT lPinky1
                  {
                    OFFSET 4.9141 -1.269 0.3591
                    CHANNELS 6 Xposition Yposition Zposition Zrotation Xrotation Yrotation
                    JOINT lPinky2
                    {
                      OFFSET 3.1477 -1.685 0.8462
                      CHANNELS 6 Xposition Yposition Zposition Zrotation Xrotation Yrotation
                      JOINT lPinky2_End
                      {
                        OFFSET 0.8055 -1.585 0.7955
                        CHANNELS 6 Xposition Yposition Zposition Zrotation Xrotation Yrotation
                        End Site
                        {
                          OFFSET 0.0081 -0.0158 0.008
                        }
                      }
                    }
                  }
                }
              }
            }
          }
        }
        JOINT rCollar
        {
          OFFSET -1.7069 20.075 5.0056
          CHANNELS 6 Xposition Yposition Zposition Zrotation Xrotation Yrotation
          JOINT rShldr
          {
            OFFSET -13.6458 -0.047 -4.849
            CHANNELS 6 Xposition Yposition Zposition Zrotation Xrotation Yrotation
            JOINT rForeArm
            {
              OFFSET -28.3255 -0.9759 2.2888
              CHANNELS 6 Xposition Yposition Zposition Zrotation Xrotation Yrotation
              JOINT rHand
              {
                OFFSET -22.1583 -0.53 10.8316
                CHANNELS 6 Xposition Yposition Zposition Zrotation Xrotation Yrotation
                JOINT rThumb1
                {
                  OFFSET -0.786 0.112 2.5817
                  CHANNELS 6 Xposition Yposition Zposition Zrotation Xrotation Yrotation
                  JOINT rThumb2
                  {
                    OFFSET -0.3601 -0.878 4.2331
                    CHANNELS 6 Xposition Yposition Zposition Zrotation Xrotation Yrotation
                    JOINT rThumb2_End
                    {
                      OFFSET -1.8127 -1.216 2.2227
                      CHANNELS 6 Xposition Yposition Zposition Zrotation Xrotation Yrotation
                      End Site
                      {
                        OFFSET -0.0181 -0.0122 0.0222
                      }
                    }
                  }
                }
                JOINT rCarpal1
                {
                  OFFSET -0.9571 1.114 1.7695
                  CHANNELS 6 Xposition Yposition Zposition Zrotation Xrotation Yrotation
                  JOINT rIndex1
                  {
                    OFFSET -4.1246 0.487 4.1451
                    CHANNELS 6 Xposition Yposition Zposition Zrotation Xrotation Yrotation
                    JOINT rIndex2
                    {
                      OFFSET -3.4052 -1.454 2.7682
                      CHANNELS 6 Xposition Yposition Zposition Zrotation Xrotation Yrotation
                      JOINT rIndex2_End
                      {
                        OFFSET -1.4531 -1.795 1.2713
                        CHANNELS 6 Xposition Yposition Zposition Zrotation Xrotation Yrotation
                        End Site
                        {
                          OFFSET -0.0145 -0.018 0.0127
                        }
                      }
                    }
                  }
                  JOINT rMid1
                  {
                    OFFSET -5.6954 0.21 2.1184
                    CHANNELS 6 Xposition Yposition Zposition Zrotation Xrotation Yrotation
                    JOINT rMid2
                    {
                      OFFSET -3.9766 -1.54 2.3863
                      CHANNELS 6 Xposition Yposition Zposition Zrotation Xrotation Yrotation
                      JOINT rMid2_End
                      {
                        OFFSET -1.4042 -1.926 1.125
                        CHANNELS 6 Xposition Yposition Zposition Zrotation Xrotation Yrotation
                        End Site
                        {
                          OFFSET -0.014 -0.0193 0.0113
                        }
                      }
                    }
                  }
                }
                JOINT rCarpal2
                {
                  OFFSET -2.0956 0.66 -0.3894
                  CHANNELS 6 Xposition Yposition Zposition Zrotation Xrotation Yrotation
                  JOINT rRing1
                  {
                    OFFSET -5.0395 -0.09 2.4971
                    CHANNELS 6 Xposition Yposition Zposition Zrotation Xrotation Yrotation
                    JOINT rRing2
                    {
                      OFFSET -3.7921 -1.552 1.4806
                      CHANNELS 6 Xposition Yposition Zposition Zrotation Xrotation Yrotation
                      JOINT rRing2_End
                      {
                        OFFSET -1.4655 -1.808 0.9609
                        CHANNELS 6 Xposition Yposition Zposition Zrotation Xrotation Yrotation
                        End Site
                        {
                          OFFSET -0.0147 -0.0181 0.0096
                        }
                      }
                    }
                  }
                  JOINT rPinky1
                  {
                    OFFSET -4.9141 -1.269 0.3592
                    CHANNELS 6 Xposition Yposition Zposition Zrotation Xrotation Yrotation
                    JOINT rPinky2
                    {
                      OFFSET -3.1477 -1.685 0.8462
                      CHANNELS 6 Xposition Yposition Zposition Zrotation Xrotation Yrotation
                      JOINT rPinky2_End
                      {
                        OFFSET -0.8055 -1.585 0.7955
                        CHANNELS 6 Xposition Yposition Zposition Zrotation Xrotation Yrotation
                        End Site
                        {
                          OFFSET -0.0081 -0.0158 0.008
                        }
                      }
                    }
                  }
                }
              }
            }
          }
        }
      }
    }
  }
  JOINT lThigh
  {
    OFFSET 8.367 -8.2066 0.5982
    CHANNELS 6 Xposition Yposition Zposition Zrotation Xrotation Yrotation
    JOINT lShin
    {
      OFFSET 2.1923 -43.463 -0.4932
      CHANNELS 6 Xposition Yposition Zposition Zrotation Xrotation Yrotation
      JOINT lFoot
      {
        OFFSET 0.7333 -45.8593 -2.6451
        CHANNELS 6 Xposition Yposition Zposition Zrotation Xrotation Yrotation
        End Site
        {
          OFFSET 2.6618 -4.2699 12.3931
        }
      }
    }
  }
  JOINT rThigh
  {
    OFFSET -8.367 -8.2066 0.5982
    CHANNELS 6 Xposition Yposition Zposition Zrotation Xrotation Yrotation
    JOINT rShin
    {
      OFFSET -2.1923 -43.463 -0.4931
      CHANNELS 6 Xposition Yposition Zposition Zrotation Xrotation Yrotation
      JOINT rFoot
      {
        OFFSET -0.7333 -45.8593 -2.6451
        CHANNELS 6 Xposition Yposition Zposition Zrotation Xrotation Yrotation
        End Site
        {
          OFFSET -2.6618 -4.2699 12.3931
        }
      }
    }
  }
}
MOTION
Frames:	4
Frame Time:	0.0333333
0 90.174 2.4664 0 0 -0 0 -1.186 -1.5018 0 0 -0 0 9.964 0.2134 0 0 -0 0 13.134 -3.2573 0 0 -0 0 20.686 -1.6905 0 0 -0 0 7.238 -0.1237 0 0 -0 1.7069 20.075 5.0056 0 0 -0 13.6458 -0.047 -4.849 1.66051 0.0835086 5.75766 28.3255 -0.9759 2.2888 -0.0175111 0.895433 15.7816 22.1583 -0.53 10.8316 7.95139e-016 -1.98785e-016 -0 0.786 0.112 2.5817 5.46658e-016 -3.97569e-016 -0 0.3601 -0.878 4.2331 5.96354e-016 0 -0 1.8127 -1.216 2.2227 3.97569e-016 1.98785e-016 9.54166e-015 0.9571 1.114 1.7695 1.49089e-016 -3.97569e-016 -0 4.1246 0.487 4.1451 6.4605e-016 0 3.18055e-015 3.4052 -1.454 2.7682 5.96354e-016 0 3.18055e-015 1.4531 -1.795 1.2713 8.94531e-016 -1.98785e-016 6.36111e-015 5.6954 0.21 2.1184 6.4605e-016 0 3.18055e-015 3.9766 -1.54 2.3863 5.96354e-016 0 3.18055e-015 1.4042 -1.926 1.125 8.94531e-016 -1.98785e-016 6.36111e-015 2.0956 0.66 -0.3894 1.49089e-016 -3.97569e-016 -0 5.0395 -0.09 2.4971 6.4605e-016 0 3.18055e-015 3.7921 -1.552 1.4806 5.96354e-016 0 3.18055e-015 1.4655 -1.808 0.9609 8.94531e-016 -1.98785e-016 6.36111e-015 4.9141 -1.269 0.3591 6.4605e-016 0 3.18055e-015 3.1477 -1.685 0.8462 5.96354e-016 0 3.18055e-015 0.8055 -1.585 0.7955 8.94531e-016 -1.98785e-016 6.36111e-015 -1.7069 20.075 5.0056 0 0 -0 -13.6458 -0.047 -4.849 -1.4496 0.0636048 -5.0245 -28.3255 -0.9759 2.2888 -1.74811 1.20616 -16.8394 -22.1583 -0.53 10.8316 -1.19271e-015 1.98785e-016 -3.18055e-015 -0.786 0.112 2.5817 -3.97569e-016 1.98785e-016 -3.18055e-015 -0.3601 -0.878 4.2331 -2.98177e-016 1.98785e-016 -3.18055e-015 -1.8127 -1.216 2.2227 -2.98177e-016 3.97569e-016 -0 -0.9571 1.114 1.7695 4.96962e-016 0 -6.36111e-015 -4.1246 0.487 4.1451 -9.93923e-017 3.97569e-016 -0 -3.4052 -1.454 2.7682 -8.94531e-016 5.96354e-016 -0 -1.4531 -1.795 1.2713 -3.97569e-016 3.97569e-016 -0 -5.6954 0.21 2.1184 -9.93923e-017 3.97569e-016 -0 -3.9766 -1.54 2.3863 -8.94531e-016 5.96354e-016 -0 -1.4042 -1.926 1.125 -3.97569e-016 3.97569e-016 -0 -2.0956 0.66 -0.3894 4.96962e-016 0 -6.36111e-015 -5.0395 -0.09 2.4971 -9.93923e-017 3.97569e-016 -0 -3.7921 -1.552 1.4806 -8.94531e-016 5.96354e-016 -0 -1.4655 -1.808 0.9609 -3.97569e-016 3.97569e-016 -0 -4.9141 -1.269 0.3592 -9.93923e-017 3.97569e-016 -0 -3.1477 -1.685 0.8462 -8.94531e-016 5.96354e-016 -0 -0.8055 -1.585 0.7955 -3.97569e-016 3.97569e-016 -0 8.367 -8.2066 0.5982 -4.66115 -1.03232 0.120763 2.1923 -43.463 -0.4932 0.00990601 1.55097 0.177175 0.7333 -45.8593 -2.6451 4.65196 -0.54114 -0.255042 -8.367 -8.2066 0.5982 4.66115 -1.03222 -0.120763 -2.1923 -43.463 -0.4931 -0.00990459 1.5509 -0.177176 -0.7333 -45.8593 -2.6451 -4.65196 -0.541171 0.255041 
-2.10315 19.7606 -23.1859 133.339 65.9141 -0.0113245 0 -1.186 -1.5018 -0.0106888 -0.320905 -0.207388 0 9.964 0.2134 -0.0225665 -0.641741 -0.414841 1.77636e-015 13.134 -3.2573 -0.0225673 -0.64175 -0.414831 0 20.686 -1.6905 0.000292431 32.5913 -0.00014431 0 7.238 -0.1237 -1.24754e-005 -29.4009 -8.82305e-006 1.7069 20.075 5.0056 -14.1058 2.54775 13.2095 13.6458 -0.047 -4.849 -0.0641516 2.46893 -52.4206 28.3255 -0.9759 2.2888 -10.7094 -7.1545 -15.4156 22.1583 -0.53 10.8316 -34.2515 -13.3821 -27.4845 0.786 0.112 2.5817 7.15625e-015 -3.18055e-015 7.95139e-016 0.3601 -0.878 4.2331 -1.59028e-015 0 -1.59028e-015 1.8127 -1.216 2.2227 -2.78299e-015 0 -7.95139e-016 0.9571 1.114 1.7695 7.15625e-015 -3.18055e-015 7.95139e-016 4.1246 0.487 4.1451 -8.82781e-032 -6.36111e-015 -7.95139e-016 3.4052 -1.454 2.7682 -0 0 7.95139e-016 1.4531 -1.795 1.2713 -3.97569e-016 6.36111e-015 1.59028e-015 5.6954 0.21 2.1184 -8.82781e-032 -6.36111e-015 -7.95139e-016 3.9766 -1.54 2.3863 -0 0 7.95139e-016 1.4042 -1.926 1.125 -3.97569e-016 6.36111e-015 1.59028e-015 2.0956 0.66 -0.3894 7.15625e-015 -3.18055e-015 7.95139e-016 5.0395 -0.09 2.4971 -8.82781e-032 -6.36111e-015 -7.95139e-016 3.7921 -1.552 1.4806 -0 0 7.95139e-016 1.4655 -1.808 0.9609 -3.97569e-016 6.36111e-015 1.59028e-015 4.9141 -1.269 0.3591 -8.82781e-032 -6.36111e-015 -7.95139e-016 3.1477 -1.685 0.8462 -0 0 7.95139e-016 0.8055 -1.585 0.7955 -3.97569e-016 6.36111e-015 1.59028e-015 -1.7069 20.075 5.0056 14.0659 2.24378 -12.9935 -13.6458 -0.047 -4.849 0.149317 2.59119 53.0108 -28.3255 -0.9759 2.2888 8.85266 -7.90403 14.0604 -22.1583 -0.53 10.8316 34.7451 -13.4242 26.5723 -0.786 0.112 2.5817 -9.70062e-007 1.35887e-006 2.96442e-006 -0.3601 -0.878 4.2331 9.54166e-015 6.36111e-015 -1.59028e-015 -1.8127 -1.216 2.2227 -1.26592e-006 -1.60555e-006 4.32329e-006 -0.9571 1.114 1.7695 -5.96354e-015 -6.36111e-015 3.97569e-016 -4.1246 0.487 4.1451 -9.70062e-007 1.35887e-006 2.96442e-006 -3.4052 -1.454 2.7682 7.15625e-015 -3.18055e-015 2.78299e-015 -1.4531 -1.795 1.2713 -1.26592e-006 -1.60555e-006 4.32329e-006 -5.6954 0.21 2.1184 -9.70062e-007 1.35887e-006 2.96442e-006 -3.9766 -1.54 2.3863 7.15625e-015 -3.18055e-015 2.78299e-015 -1.4042 -1.926 1.125 -1.26592e-006 -1.60555e-006 4.32329e-006 -2.0956 0.66 -0.3894 -5.96354e-015 -6.36111e-015 3.97569e-016 -5.0395 -0.09 2.4971 -9.70062e-007 1.35887e-006 2.96442e-006 -3.7921 -1.552 1.4806 7.15625e-015 -3.18055e-015 2.78299e-015 -1.4655 -1.808 0.9609 -1.26592e-006 -1.60555e-006 4.32329e-006 -4.9141 -1.269 0.3592 -9.70062e-007 1.35887e-006 2.96442e-006 -3.1477 -1.685 0.8462 7.15625e-015 -3.18055e-015 2.78299e-015 -0.8055 -1.585 0.7955 -1.26592e-006 -1.60555e-006 4.32329e-006 8.367 -8.2066 0.5982 27.6054 -21.4362 23.893 2.1923 -43.463 -0.4932 8.00925 43.7918 -10.7479 0.7333 -45.8593 -2.6451 22.2905 41.6993 -23.5043 -8.367 -8.2066 0.5982 -28.4046 -20.7766 -23.8715 -2.1923 -43.463 -0.4931 -8.59184 46.01 11.4086 -0.7333 -45.8593 -2.6451 -20.7757 39.1238 22.4306 
-2.15244 -1.81435 -38.8562 13.2582 84.4211 -179.931 0 -1.186 -1.5018 -0.0264813 -0.403253 -0.300313 4.44089e-016 9.964 0.2134 -0.055086 -0.806409 -0.600866 -4.44089e-016 13.134 -3.2573 -0.0550915 -0.806418 -0.60086 0 20.686 -1.6905 -0.000208711 47.2576 0.000197778 0 7.238 -0.1237 -2.38503e-006 -43.7675 -3.73433e-006 1.7069 20.075 5.0056 -20.7263 3.36759 19.2797 13.6458 -0.047 -4.849 0.317857 -0.549932 -78.3284 28.3255 -0.9759 2.2888 -18.2355 -8.34641 -30.0708 22.1583 -0.53 10.8316 -54.2573 -13.5136 -39.1522 0.786 0.112 2.5817 3.97569e-016 2.38542e-015 4.77083e-015 0.3601 -0.878 4.2331 -3.27995e-015 -3.97569e-016 1.59028e-015 1.8127 -1.216 2.2227 -4.47266e-015 1.59028e-015 3.18055e-015 0.9571 1.114 1.7695 4.96962e-016 1.59028e-015 1.59028e-015 4.1246 0.487 4.1451 -9.83984e-015 -2.38542e-015 7.95139e-015 3.4052 -1.454 2.7682 -3.37934e-015 2.78299e-015 4.77083e-015 1.4531 -1.795 1.2713 -6.95746e-016 1.59028e-015 4.77083e-015 5.6954 0.21 2.1184 -9.83984e-015 -2.38542e-015 7.95139e-015 3.9766 -1.54 2.3863 -3.37934e-015 2.78299e-015 4.77083e-015 1.4042 -1.926 1.125 -6.95746e-016 1.59028e-015 4.77083e-015 2.0956 0.66 -0.3894 4.96962e-016 1.59028e-015 1.59028e-015 5.0395 -0.09 2.4971 -9.83984e-015 -2.38542e-015 7.95139e-015 3.7921 -1.552 1.4806 -3.37934e-015 2.78299e-015 4.77083e-015 1.4655 -1.808 0.9609 -6.95746e-016 1.59028e-015 4.77083e-015 4.9141 -1.269 0.3591 -9.83984e-015 -2.38542e-015 7.95139e-015 3.1477 -1.685 0.8462 -3.37934e-015 2.78299e-015 4.77083e-015 0.8055 -1.585 0.7955 -6.95746e-016 1.59028e-015 4.77083e-015 -1.7069 20.075 5.0056 20.6193 2.94728 -18.9698 -13.6458 -0.047 -4.849 -0.323807 -0.325271 78.8723 -28.3255 -0.9759 2.2888 16.5467 -9.5769 28.6926 -22.1583 -0.53 10.8316 54.919 -13.8142 37.872 -0.786 0.112 2.5817 2.20695e-032 -7.95139e-016 1.59028e-015 -0.3601 -0.878 4.2331 -2.98177e-015 -1.59028e-015 -0 -1.8127 -1.216 2.2227 -2.78299e-015 -2.38542e-015 1.59028e-015 -0.9571 1.114 1.7695 3.18055e-015 0 1.59028e-015 -4.1246 0.487 4.1451 -3.18055e-015 -7.95139e-016 6.36111e-015 -3.4052 -1.454 2.7682 -6.16232e-015 -1.59028e-015 3.18055e-015 -1.4531 -1.795 1.2713 -5.76476e-015 -7.95139e-016 4.77083e-015 -5.6954 0.21 2.1184 -3.18055e-015 -7.95139e-016 6.36111e-015 -3.9766 -1.54 2.3863 -6.16232e-015 -1.59028e-015 3.18055e-015 -1.4042 -1.926 1.125 -5.76476e-015 -7.95139e-016 4.77083e-015 -2.0956 0.66 -0.3894 3.18055e-015 0 1.59028e-015 -5.0395 -0.09 2.4971 -3.18055e-015 -7.95139e-016 6.36111e-015 -3.7921 -1.552 1.4806 -6.16232e-015 -1.59028e-015 3.18055e-015 -1.4655 -1.808 0.9609 -5.76476e-015 -7.95139e-016 4.77083e-015 -4.9141 -1.269 0.3592 -3.18055e-015 -7.95139e-016 6.36111e-015 -3.1477 -1.685 0.8462 -6.16232e-015 -1.59028e-015 3.18055e-015 -0.8055 -1.585 0.7955 -5.76476e-015 -7.95139e-016 4.77083e-015 8.367 -8.2066 0.5982 47.6476 -29.6167 37.7054 2.1923 -43.463 -0.4932 31.0359 65.9001 -30.8183 0.7333 -45.8593 -2.6451 43.8073 51.306 -42.0293 -8.367 -8.2066 0.5982 -47.9224 -30.6808 -37.9383 -2.1923 -43.463 -0.4931 -31.5898 66.182 31.2963 -0.7333 -45.8593 -2.6451 -44.4542 51.8996 42.6273 
-1.14926 2.9576 -35.0946 -179.651 88.9936 -0.355032 0 -1.186 -1.5018 -0.0232927 -0.247283 -0.279678 0 9.964 0.2134 -0.0477928 -0.494454 -0.559464 0 13.134 -3.2573 -0.0477928 -0.494442 -0.559464 0 20.686 -1.6905 -0.0001285 43.9983 0.000215225 0 7.238 -0.1237 1.3249e-007 -43.1028 1.9744e-007 1.7069 20.075 5.0056 -19.0121 2.7086 18.1675 13.6458 -0.047 -4.849 0.325874 0.379735 -72.6103 28.3255 -0.9759 2.2888 -16.673 -8.06842 -27.5921 22.1583 -0.53 10.8316 -49.4499 -14.25 -36.7154 0.786 0.112 2.5817 9.54166e-015 1.59028e-015 -1.59028e-015 0.3601 -0.878 4.2331 -1.59028e-015 1.59028e-015 -1.59028e-015 1.8127 -1.216 2.2227 -1.98785e-015 3.18055e-015 -0 0.9571 1.114 1.7695 9.14409e-015 0 -0 4.1246 0.487 4.1451 -2.38542e-015 -3.18055e-015 1.59028e-015 3.4052 -1.454 2.7682 -1.19271e-014 3.18055e-015 -1.59028e-015 1.4531 -1.795 1.2713 -9.93923e-015 6.36111e-015 -1.59028e-015 5.6954 0.21 2.1184 -2.38542e-015 -3.18055e-015 1.59028e-015 3.9766 -1.54 2.3863 -1.19271e-014 3.18055e-015 -1.59028e-015 1.4042 -1.926 1.125 -9.93923e-015 6.36111e-015 -1.59028e-015 2.0956 0.66 -0.3894 9.14409e-015 0 -0 5.0395 -0.09 2.4971 -2.38542e-015 -3.18055e-015 1.59028e-015 3.7921 -1.552 1.4806 -1.19271e-014 3.18055e-015 -1.59028e-015 1.4655 -1.808 0.9609 -9.93923e-015 6.36111e-015 -1.59028e-015 4.9141 -1.269 0.3591 -2.38542e-015 -3.18055e-015 1.59028e-015 3.1477 -1.685 0.8462 -1.19271e-014 3.18055e-015 -1.59028e-015 0.8055 -1.585 0.7955 -9.93923e-015 6.36111e-015 -1.59028e-015 -1.7069 20.075 5.0056 18.9253 2.32221 -17.8967 -13.6458 -0.047 -4.849 -0.307718 0.580225 73.1636 -28.3255 -0.9759 2.2888 14.9444 -9.2211 26.1994 -22.1583 -0.53 10.8316 50.078 -14.4751 35.5399 -0.786 0.112 2.5817 3.09986e-006 1.93649e-006 -1.08887e-006 -0.3601 -0.878 4.2331 -3.09986e-006 -1.93649e-006 1.08887e-006 -1.8127 -1.216 2.2227 3.09986e-006 1.93649e-006 -1.08887e-006 -0.9571 1.114 1.7695 1.98785e-015 0 -0 -4.1246 0.487 4.1451 3.09986e-006 1.93649e-006 -1.08887e-006 -3.4052 -1.454 2.7682 -3.09986e-006 -1.93649e-006 1.08887e-006 -1.4531 -1.795 1.2713 3.09986e-006 1.93649e-006 -1.08887e-006 -5.6954 0.21 2.1184 3.09986e-006 1.93649e-006 -1.08887e-006 -3.9766 -1.54 2.3863 -3.09986e-006 -1.93649e-006 1.08887e-006 -1.4042 -1.926 1.125 3.09986e-006 1.93649e-006 -1.08887e-006 -2.0956 0.66 -0.3894 1.98785e-015 0 -0 -5.0395 -0.09 2.4971 3.09986e-006 1.93649e-006 -1.08887e-006 -3.7921 -1.552 1.4806 -3.09986e-006 -1.93649e-006 1.08887e-006 -1.4655 -1.808 0.9609 3.09986e-006 1.93649e-006 -1.08887e-006 -4.9141 -1.269 0.3592 3.09986e-006 1.93649e-006 -1.08887e-006 -3.1477 -1.685 0.8462 -3.09986e-006 -1.93649e-006 1.08887e-006 -0.8055 -1.585 0.7955 3.09986e-006 1.93649e-006 -1.08887e-006 8.367 -8.2066 0.5982 42.8302 -28.5397 34.5113 2.1923 -43.463 -0.4932 23.608 62.2588 -24.0267 0.7333 -45.8593 -2.6451 38.1689 49.3539 -36.9958 -8.367 -8.2066 0.5982 -42.838 -28.537 -34.547 -2.1923 -43.463 -0.4931 -23.6747 62.2464 24.0747 -0.7333 -45.8593 -2.6451 -38.1967 49.315 37.0291 
